<?xml version="1.0" encoding="UTF-8" standalone="no"?>
<!-- Created with Inkscape (http://www.inkscape.org/) -->

<svg
   xmlns:dc="http://purl.org/dc/elements/1.1/"
   xmlns:cc="http://creativecommons.org/ns#"
   xmlns:rdf="http://www.w3.org/1999/02/22-rdf-syntax-ns#"
   xmlns:svg="http://www.w3.org/2000/svg"
   xmlns="http://www.w3.org/2000/svg"
   xmlns:sodipodi="http://sodipodi.sourceforge.net/DTD/sodipodi-0.dtd"
   xmlns:inkscape="http://www.inkscape.org/namespaces/inkscape"
   id="svg2"
   version="1.1"
   inkscape:version="0.91 r13725"
   xml:space="preserve"
   width="319.22934"
   height="116.34384"
   viewBox="0 0 319.22933 116.34384"
   sodipodi:docname="confidence_intervall.svg"><metadata
     id="metadata8"><rdf:RDF><cc:Work
         rdf:about=""><dc:format>image/svg+xml</dc:format><dc:type
           rdf:resource="http://purl.org/dc/dcmitype/StillImage" /><dc:title></dc:title></cc:Work></rdf:RDF></metadata><defs
     id="defs6"><clipPath
       clipPathUnits="userSpaceOnUse"
       id="clipPath130"><path
         d="M 0,0 576,0 576,396 0,396 0,0 Z"
         id="path132"
         inkscape:connector-curvature="0" /></clipPath><clipPath
       clipPathUnits="userSpaceOnUse"
       id="clipPath134"><path
         d="m 72,212.4 446.4,0 0,144 -446.4,0 0,-144 z"
         id="path136"
         inkscape:connector-curvature="0" /></clipPath><clipPath
       clipPathUnits="userSpaceOnUse"
       id="clipPath138"><path
         d="m 72,212.4 446.4,0 0,144 -446.4,0 0,-144 z"
         id="path140"
         inkscape:connector-curvature="0" /></clipPath><clipPath
       clipPathUnits="userSpaceOnUse"
       id="clipPath142"><path
         d="m 72,39.6 446.4,0 0,144 -446.4,0 0,-144 z"
         id="path144"
         inkscape:connector-curvature="0" /></clipPath><clipPath
       clipPathUnits="userSpaceOnUse"
       id="clipPath146"><path
         d="m -665,-325 2665,0 0,1331 -2665,0 0,-1331 z"
         id="path148"
         inkscape:connector-curvature="0" /></clipPath><clipPath
       clipPathUnits="userSpaceOnUse"
       id="clipPath150"><path
         d="m 72,39.6 446.4,0 0,144 -446.4,0 0,-144 z"
         id="path152"
         inkscape:connector-curvature="0" /></clipPath><clipPath
       clipPathUnits="userSpaceOnUse"
       id="clipPath154"><path
         d="m -665,-325 2665,0 0,1331 -2665,0 0,-1331 z"
         id="path156"
         inkscape:connector-curvature="0" /></clipPath><clipPath
       clipPathUnits="userSpaceOnUse"
       id="clipPath158"><path
         d="m 72,39.6 446.4,0 0,144 -446.4,0 0,-144 z"
         id="path160"
         inkscape:connector-curvature="0" /></clipPath><clipPath
       clipPathUnits="userSpaceOnUse"
       id="clipPath162"><path
         d="m 72,39.6 446.4,0 0,144 -446.4,0 0,-144 z"
         id="path164"
         inkscape:connector-curvature="0" /></clipPath><clipPath
       clipPathUnits="userSpaceOnUse"
       id="clipPath166"><path
         d="m 72,39.6 446.4,0 0,144 -446.4,0 0,-144 z"
         id="path168"
         inkscape:connector-curvature="0" /></clipPath><clipPath
       clipPathUnits="userSpaceOnUse"
       id="clipPath170"><path
         d="m 72,39.6 446.4,0 0,144 -446.4,0 0,-144 z"
         id="path172"
         inkscape:connector-curvature="0" /></clipPath><clipPath
       clipPathUnits="userSpaceOnUse"
       id="clipPath174"><path
         d="m 72,39.6 446.4,0 0,144 -446.4,0 0,-144 z"
         id="path176"
         inkscape:connector-curvature="0" /></clipPath><clipPath
       clipPathUnits="userSpaceOnUse"
       id="clipPath178"><path
         d="m -1.75,-1.75 3.5,0 0,3.5 -3.5,0 0,-3.5 z"
         id="path180"
         inkscape:connector-curvature="0" /></clipPath><clipPath
       clipPathUnits="userSpaceOnUse"
       id="clipPath182"><path
         d="m -1.75,-1.75 3.5,0 0,3.5 -3.5,0 0,-3.5 z"
         id="path184"
         inkscape:connector-curvature="0" /></clipPath><clipPath
       clipPathUnits="userSpaceOnUse"
       id="clipPath186"><path
         d="m -1.75,-1.75 3.5,0 0,3.5 -3.5,0 0,-3.5 z"
         id="path188"
         inkscape:connector-curvature="0" /></clipPath><clipPath
       clipPathUnits="userSpaceOnUse"
       id="clipPath190"><path
         d="m -1.75,-1.75 3.5,0 0,3.5 -3.5,0 0,-3.5 z"
         id="path192"
         inkscape:connector-curvature="0" /></clipPath><clipPath
       clipPathUnits="userSpaceOnUse"
       id="clipPath194"><path
         d="m -1.75,-1.75 3.5,0 0,3.5 -3.5,0 0,-3.5 z"
         id="path196"
         inkscape:connector-curvature="0" /></clipPath><clipPath
       clipPathUnits="userSpaceOnUse"
       id="clipPath198"><path
         d="m -1.75,-1.75 3.5,0 0,3.5 -3.5,0 0,-3.5 z"
         id="path200"
         inkscape:connector-curvature="0" /></clipPath><clipPath
       clipPathUnits="userSpaceOnUse"
       id="clipPath202"><path
         d="m -1.75,-1.75 3.5,0 0,3.5 -3.5,0 0,-3.5 z"
         id="path204"
         inkscape:connector-curvature="0" /></clipPath><clipPath
       clipPathUnits="userSpaceOnUse"
       id="clipPath206"><path
         d="m -1.75,-1.75 3.5,0 0,3.5 -3.5,0 0,-3.5 z"
         id="path208"
         inkscape:connector-curvature="0" /></clipPath><clipPath
       clipPathUnits="userSpaceOnUse"
       id="clipPath210"><path
         d="m -1.75,-1.75 3.5,0 0,3.5 -3.5,0 0,-3.5 z"
         id="path212"
         inkscape:connector-curvature="0" /></clipPath><clipPath
       clipPathUnits="userSpaceOnUse"
       id="clipPath214"><path
         d="m -1.75,-1.75 3.5,0 0,3.5 -3.5,0 0,-3.5 z"
         id="path216"
         inkscape:connector-curvature="0" /></clipPath><clipPath
       clipPathUnits="userSpaceOnUse"
       id="clipPath218"><path
         d="m -1.75,-1.75 3.5,0 0,3.5 -3.5,0 0,-3.5 z"
         id="path220"
         inkscape:connector-curvature="0" /></clipPath><clipPath
       clipPathUnits="userSpaceOnUse"
       id="clipPath222"><path
         d="m -1.75,-1.75 3.5,0 0,3.5 -3.5,0 0,-3.5 z"
         id="path224"
         inkscape:connector-curvature="0" /></clipPath><clipPath
       clipPathUnits="userSpaceOnUse"
       id="clipPath226"><path
         d="m -1.75,-1.75 3.5,0 0,3.5 -3.5,0 0,-3.5 z"
         id="path228"
         inkscape:connector-curvature="0" /></clipPath><clipPath
       clipPathUnits="userSpaceOnUse"
       id="clipPath230"><path
         d="m -1.75,-1.75 3.5,0 0,3.5 -3.5,0 0,-3.5 z"
         id="path232"
         inkscape:connector-curvature="0" /></clipPath><clipPath
       clipPathUnits="userSpaceOnUse"
       id="clipPath234"><path
         d="m -1.75,-1.75 3.5,0 0,3.5 -3.5,0 0,-3.5 z"
         id="path236"
         inkscape:connector-curvature="0" /></clipPath><clipPath
       clipPathUnits="userSpaceOnUse"
       id="clipPath238"><path
         d="m -1.75,-1.75 3.5,0 0,3.5 -3.5,0 0,-3.5 z"
         id="path240"
         inkscape:connector-curvature="0" /></clipPath><clipPath
       clipPathUnits="userSpaceOnUse"
       id="clipPath242"><path
         d="m -1.75,-1.75 3.5,0 0,3.5 -3.5,0 0,-3.5 z"
         id="path244"
         inkscape:connector-curvature="0" /></clipPath><clipPath
       clipPathUnits="userSpaceOnUse"
       id="clipPath246"><path
         d="m -1.75,-1.75 3.5,0 0,3.5 -3.5,0 0,-3.5 z"
         id="path248"
         inkscape:connector-curvature="0" /></clipPath><clipPath
       clipPathUnits="userSpaceOnUse"
       id="clipPath250"><path
         d="m -1.75,-1.75 3.5,0 0,3.5 -3.5,0 0,-3.5 z"
         id="path252"
         inkscape:connector-curvature="0" /></clipPath><clipPath
       clipPathUnits="userSpaceOnUse"
       id="clipPath254"><path
         d="m -1.75,-1.75 3.5,0 0,3.5 -3.5,0 0,-3.5 z"
         id="path256"
         inkscape:connector-curvature="0" /></clipPath><clipPath
       clipPathUnits="userSpaceOnUse"
       id="clipPath258"><path
         d="m -1.75,-1.75 3.5,0 0,3.5 -3.5,0 0,-3.5 z"
         id="path260"
         inkscape:connector-curvature="0" /></clipPath><clipPath
       clipPathUnits="userSpaceOnUse"
       id="clipPath262"><path
         d="m -1.75,-1.75 3.5,0 0,3.5 -3.5,0 0,-3.5 z"
         id="path264"
         inkscape:connector-curvature="0" /></clipPath><clipPath
       clipPathUnits="userSpaceOnUse"
       id="clipPath266"><path
         d="m -1.75,-1.75 3.5,0 0,3.5 -3.5,0 0,-3.5 z"
         id="path268"
         inkscape:connector-curvature="0" /></clipPath><clipPath
       clipPathUnits="userSpaceOnUse"
       id="clipPath270"><path
         d="m -1.75,-1.75 3.5,0 0,3.5 -3.5,0 0,-3.5 z"
         id="path272"
         inkscape:connector-curvature="0" /></clipPath><clipPath
       clipPathUnits="userSpaceOnUse"
       id="clipPath274"><path
         d="m -1.75,-1.75 3.5,0 0,3.5 -3.5,0 0,-3.5 z"
         id="path276"
         inkscape:connector-curvature="0" /></clipPath><clipPath
       clipPathUnits="userSpaceOnUse"
       id="clipPath278"><path
         d="m -1.75,-1.75 3.5,0 0,3.5 -3.5,0 0,-3.5 z"
         id="path280"
         inkscape:connector-curvature="0" /></clipPath><clipPath
       clipPathUnits="userSpaceOnUse"
       id="clipPath282"><path
         d="m -1.75,-1.75 3.5,0 0,3.5 -3.5,0 0,-3.5 z"
         id="path284"
         inkscape:connector-curvature="0" /></clipPath><clipPath
       clipPathUnits="userSpaceOnUse"
       id="clipPath286"><path
         d="m -1.75,-1.75 3.5,0 0,3.5 -3.5,0 0,-3.5 z"
         id="path288"
         inkscape:connector-curvature="0" /></clipPath><clipPath
       clipPathUnits="userSpaceOnUse"
       id="clipPath290"><path
         d="m -1.75,-1.75 3.5,0 0,3.5 -3.5,0 0,-3.5 z"
         id="path292"
         inkscape:connector-curvature="0" /></clipPath><clipPath
       clipPathUnits="userSpaceOnUse"
       id="clipPath294"><path
         d="m -1.75,-1.75 3.5,0 0,3.5 -3.5,0 0,-3.5 z"
         id="path296"
         inkscape:connector-curvature="0" /></clipPath><clipPath
       clipPathUnits="userSpaceOnUse"
       id="clipPath298"><path
         d="m -1.75,-1.75 3.5,0 0,3.5 -3.5,0 0,-3.5 z"
         id="path300"
         inkscape:connector-curvature="0" /></clipPath><clipPath
       clipPathUnits="userSpaceOnUse"
       id="clipPath302"><path
         d="m -1.75,-1.75 3.5,0 0,3.5 -3.5,0 0,-3.5 z"
         id="path304"
         inkscape:connector-curvature="0" /></clipPath><clipPath
       clipPathUnits="userSpaceOnUse"
       id="clipPath306"><path
         d="m -1.75,-1.75 3.5,0 0,3.5 -3.5,0 0,-3.5 z"
         id="path308"
         inkscape:connector-curvature="0" /></clipPath><clipPath
       clipPathUnits="userSpaceOnUse"
       id="clipPath310"><path
         d="m -1.75,-1.75 3.5,0 0,3.5 -3.5,0 0,-3.5 z"
         id="path312"
         inkscape:connector-curvature="0" /></clipPath><clipPath
       clipPathUnits="userSpaceOnUse"
       id="clipPath314"><path
         d="m -1.75,-1.75 3.5,0 0,3.5 -3.5,0 0,-3.5 z"
         id="path316"
         inkscape:connector-curvature="0" /></clipPath><clipPath
       clipPathUnits="userSpaceOnUse"
       id="clipPath318"><path
         d="m -1.75,-1.75 3.5,0 0,3.5 -3.5,0 0,-3.5 z"
         id="path320"
         inkscape:connector-curvature="0" /></clipPath><clipPath
       clipPathUnits="userSpaceOnUse"
       id="clipPath322"><path
         d="m -1.75,-1.75 3.5,0 0,3.5 -3.5,0 0,-3.5 z"
         id="path324"
         inkscape:connector-curvature="0" /></clipPath><clipPath
       clipPathUnits="userSpaceOnUse"
       id="clipPath326"><path
         d="m -1.75,-1.75 3.5,0 0,3.5 -3.5,0 0,-3.5 z"
         id="path328"
         inkscape:connector-curvature="0" /></clipPath><clipPath
       clipPathUnits="userSpaceOnUse"
       id="clipPath330"><path
         d="m -1.75,-1.75 3.5,0 0,3.5 -3.5,0 0,-3.5 z"
         id="path332"
         inkscape:connector-curvature="0" /></clipPath><clipPath
       clipPathUnits="userSpaceOnUse"
       id="clipPath334"><path
         d="m -1.75,-1.75 3.5,0 0,3.5 -3.5,0 0,-3.5 z"
         id="path336"
         inkscape:connector-curvature="0" /></clipPath><clipPath
       clipPathUnits="userSpaceOnUse"
       id="clipPath338"><path
         d="m -1.75,-1.75 3.5,0 0,3.5 -3.5,0 0,-3.5 z"
         id="path340"
         inkscape:connector-curvature="0" /></clipPath><clipPath
       clipPathUnits="userSpaceOnUse"
       id="clipPath342"><path
         d="m -1.75,-1.75 3.5,0 0,3.5 -3.5,0 0,-3.5 z"
         id="path344"
         inkscape:connector-curvature="0" /></clipPath><clipPath
       clipPathUnits="userSpaceOnUse"
       id="clipPath346"><path
         d="m -1.75,-1.75 3.5,0 0,3.5 -3.5,0 0,-3.5 z"
         id="path348"
         inkscape:connector-curvature="0" /></clipPath><clipPath
       clipPathUnits="userSpaceOnUse"
       id="clipPath350"><path
         d="m -1.75,-1.75 3.5,0 0,3.5 -3.5,0 0,-3.5 z"
         id="path352"
         inkscape:connector-curvature="0" /></clipPath><clipPath
       clipPathUnits="userSpaceOnUse"
       id="clipPath354"><path
         d="m -1.75,-1.75 3.5,0 0,3.5 -3.5,0 0,-3.5 z"
         id="path356"
         inkscape:connector-curvature="0" /></clipPath><clipPath
       clipPathUnits="userSpaceOnUse"
       id="clipPath358"><path
         d="m -1.75,-1.75 3.5,0 0,3.5 -3.5,0 0,-3.5 z"
         id="path360"
         inkscape:connector-curvature="0" /></clipPath><clipPath
       clipPathUnits="userSpaceOnUse"
       id="clipPath362"><path
         d="m -1.75,-1.75 3.5,0 0,3.5 -3.5,0 0,-3.5 z"
         id="path364"
         inkscape:connector-curvature="0" /></clipPath><clipPath
       clipPathUnits="userSpaceOnUse"
       id="clipPath366"><path
         d="m -1.75,-1.75 3.5,0 0,3.5 -3.5,0 0,-3.5 z"
         id="path368"
         inkscape:connector-curvature="0" /></clipPath><clipPath
       clipPathUnits="userSpaceOnUse"
       id="clipPath370"><path
         d="m -1.75,-1.75 3.5,0 0,3.5 -3.5,0 0,-3.5 z"
         id="path372"
         inkscape:connector-curvature="0" /></clipPath><clipPath
       clipPathUnits="userSpaceOnUse"
       id="clipPath374"><path
         d="m -1.75,-1.75 3.5,0 0,3.5 -3.5,0 0,-3.5 z"
         id="path376"
         inkscape:connector-curvature="0" /></clipPath><clipPath
       id="clipPath11848"
       clipPathUnits="userSpaceOnUse"><path
         inkscape:connector-curvature="0"
         id="path11850"
         d="M 0,0 576,0 576,396 0,396 0,0 Z" /></clipPath><clipPath
       id="clipPath11852"
       clipPathUnits="userSpaceOnUse"><path
         inkscape:connector-curvature="0"
         id="path11854"
         d="m 72,212.4 446.4,0 0,144 -446.4,0 0,-144 z" /></clipPath><clipPath
       id="clipPath11856"
       clipPathUnits="userSpaceOnUse"><path
         inkscape:connector-curvature="0"
         id="path11858"
         d="m 72,212.4 446.4,0 0,144 -446.4,0 0,-144 z" /></clipPath><clipPath
       id="clipPath11860"
       clipPathUnits="userSpaceOnUse"><path
         inkscape:connector-curvature="0"
         id="path11862"
         d="m 72,39.6 446.4,0 0,144 -446.4,0 0,-144 z" /></clipPath><clipPath
       id="clipPath11864"
       clipPathUnits="userSpaceOnUse"><path
         inkscape:connector-curvature="0"
         id="path11866"
         d="m -665,-325 2665,0 0,1331 -2665,0 0,-1331 z" /></clipPath><clipPath
       id="clipPath11868"
       clipPathUnits="userSpaceOnUse"><path
         inkscape:connector-curvature="0"
         id="path11870"
         d="m 72,39.6 446.4,0 0,144 -446.4,0 0,-144 z" /></clipPath><clipPath
       id="clipPath11872"
       clipPathUnits="userSpaceOnUse"><path
         inkscape:connector-curvature="0"
         id="path11874"
         d="m -665,-325 2665,0 0,1331 -2665,0 0,-1331 z" /></clipPath><clipPath
       id="clipPath11876"
       clipPathUnits="userSpaceOnUse"><path
         inkscape:connector-curvature="0"
         id="path11878"
         d="m 72,39.6 446.4,0 0,144 -446.4,0 0,-144 z" /></clipPath><clipPath
       id="clipPath11880"
       clipPathUnits="userSpaceOnUse"><path
         inkscape:connector-curvature="0"
         id="path11882"
         d="m 72,39.6 446.4,0 0,144 -446.4,0 0,-144 z" /></clipPath><clipPath
       id="clipPath11884"
       clipPathUnits="userSpaceOnUse"><path
         inkscape:connector-curvature="0"
         id="path11886"
         d="m 72,39.6 446.4,0 0,144 -446.4,0 0,-144 z" /></clipPath><clipPath
       id="clipPath11888"
       clipPathUnits="userSpaceOnUse"><path
         inkscape:connector-curvature="0"
         id="path11890"
         d="m 72,39.6 446.4,0 0,144 -446.4,0 0,-144 z" /></clipPath><clipPath
       id="clipPath11892"
       clipPathUnits="userSpaceOnUse"><path
         inkscape:connector-curvature="0"
         id="path11894"
         d="m 72,39.6 446.4,0 0,144 -446.4,0 0,-144 z" /></clipPath><clipPath
       id="clipPath11896"
       clipPathUnits="userSpaceOnUse"><path
         inkscape:connector-curvature="0"
         id="path11898"
         d="m -1.75,-1.75 3.5,0 0,3.5 -3.5,0 0,-3.5 z" /></clipPath><clipPath
       id="clipPath11900"
       clipPathUnits="userSpaceOnUse"><path
         inkscape:connector-curvature="0"
         id="path11902"
         d="m -1.75,-1.75 3.5,0 0,3.5 -3.5,0 0,-3.5 z" /></clipPath><clipPath
       id="clipPath11904"
       clipPathUnits="userSpaceOnUse"><path
         inkscape:connector-curvature="0"
         id="path11906"
         d="m -1.75,-1.75 3.5,0 0,3.5 -3.5,0 0,-3.5 z" /></clipPath><clipPath
       id="clipPath11908"
       clipPathUnits="userSpaceOnUse"><path
         inkscape:connector-curvature="0"
         id="path11910"
         d="m -1.75,-1.75 3.5,0 0,3.5 -3.5,0 0,-3.5 z" /></clipPath><clipPath
       id="clipPath11912"
       clipPathUnits="userSpaceOnUse"><path
         inkscape:connector-curvature="0"
         id="path11914"
         d="m -1.75,-1.75 3.5,0 0,3.5 -3.5,0 0,-3.5 z" /></clipPath><clipPath
       id="clipPath11916"
       clipPathUnits="userSpaceOnUse"><path
         inkscape:connector-curvature="0"
         id="path11918"
         d="m -1.75,-1.75 3.5,0 0,3.5 -3.5,0 0,-3.5 z" /></clipPath><clipPath
       id="clipPath11920"
       clipPathUnits="userSpaceOnUse"><path
         inkscape:connector-curvature="0"
         id="path11922"
         d="m -1.75,-1.75 3.5,0 0,3.5 -3.5,0 0,-3.5 z" /></clipPath><clipPath
       id="clipPath11924"
       clipPathUnits="userSpaceOnUse"><path
         inkscape:connector-curvature="0"
         id="path11926"
         d="m -1.75,-1.75 3.5,0 0,3.5 -3.5,0 0,-3.5 z" /></clipPath><clipPath
       id="clipPath11928"
       clipPathUnits="userSpaceOnUse"><path
         inkscape:connector-curvature="0"
         id="path11930"
         d="m -1.75,-1.75 3.5,0 0,3.5 -3.5,0 0,-3.5 z" /></clipPath><clipPath
       id="clipPath11932"
       clipPathUnits="userSpaceOnUse"><path
         inkscape:connector-curvature="0"
         id="path11934"
         d="m -1.75,-1.75 3.5,0 0,3.5 -3.5,0 0,-3.5 z" /></clipPath><clipPath
       id="clipPath11936"
       clipPathUnits="userSpaceOnUse"><path
         inkscape:connector-curvature="0"
         id="path11938"
         d="m -1.75,-1.75 3.5,0 0,3.5 -3.5,0 0,-3.5 z" /></clipPath><clipPath
       id="clipPath11940"
       clipPathUnits="userSpaceOnUse"><path
         inkscape:connector-curvature="0"
         id="path11942"
         d="m -1.75,-1.75 3.5,0 0,3.5 -3.5,0 0,-3.5 z" /></clipPath><clipPath
       id="clipPath11944"
       clipPathUnits="userSpaceOnUse"><path
         inkscape:connector-curvature="0"
         id="path11946"
         d="m -1.75,-1.75 3.5,0 0,3.5 -3.5,0 0,-3.5 z" /></clipPath><clipPath
       id="clipPath11948"
       clipPathUnits="userSpaceOnUse"><path
         inkscape:connector-curvature="0"
         id="path11950"
         d="m -1.75,-1.75 3.5,0 0,3.5 -3.5,0 0,-3.5 z" /></clipPath><clipPath
       id="clipPath11952"
       clipPathUnits="userSpaceOnUse"><path
         inkscape:connector-curvature="0"
         id="path11954"
         d="m -1.75,-1.75 3.5,0 0,3.5 -3.5,0 0,-3.5 z" /></clipPath><clipPath
       id="clipPath11956"
       clipPathUnits="userSpaceOnUse"><path
         inkscape:connector-curvature="0"
         id="path11958"
         d="m -1.75,-1.75 3.5,0 0,3.5 -3.5,0 0,-3.5 z" /></clipPath><clipPath
       id="clipPath11960"
       clipPathUnits="userSpaceOnUse"><path
         inkscape:connector-curvature="0"
         id="path11962"
         d="m -1.75,-1.75 3.5,0 0,3.5 -3.5,0 0,-3.5 z" /></clipPath><clipPath
       id="clipPath11964"
       clipPathUnits="userSpaceOnUse"><path
         inkscape:connector-curvature="0"
         id="path11966"
         d="m -1.75,-1.75 3.5,0 0,3.5 -3.5,0 0,-3.5 z" /></clipPath><clipPath
       id="clipPath11968"
       clipPathUnits="userSpaceOnUse"><path
         inkscape:connector-curvature="0"
         id="path11970"
         d="m -1.75,-1.75 3.5,0 0,3.5 -3.5,0 0,-3.5 z" /></clipPath><clipPath
       id="clipPath11972"
       clipPathUnits="userSpaceOnUse"><path
         inkscape:connector-curvature="0"
         id="path11974"
         d="m -1.75,-1.75 3.5,0 0,3.5 -3.5,0 0,-3.5 z" /></clipPath><clipPath
       id="clipPath11976"
       clipPathUnits="userSpaceOnUse"><path
         inkscape:connector-curvature="0"
         id="path11978"
         d="m -1.75,-1.75 3.5,0 0,3.5 -3.5,0 0,-3.5 z" /></clipPath><clipPath
       id="clipPath11980"
       clipPathUnits="userSpaceOnUse"><path
         inkscape:connector-curvature="0"
         id="path11982"
         d="m -1.75,-1.75 3.5,0 0,3.5 -3.5,0 0,-3.5 z" /></clipPath><clipPath
       id="clipPath11984"
       clipPathUnits="userSpaceOnUse"><path
         inkscape:connector-curvature="0"
         id="path11986"
         d="m -1.75,-1.75 3.5,0 0,3.5 -3.5,0 0,-3.5 z" /></clipPath><clipPath
       id="clipPath11988"
       clipPathUnits="userSpaceOnUse"><path
         inkscape:connector-curvature="0"
         id="path11990"
         d="m -1.75,-1.75 3.5,0 0,3.5 -3.5,0 0,-3.5 z" /></clipPath><clipPath
       id="clipPath11992"
       clipPathUnits="userSpaceOnUse"><path
         inkscape:connector-curvature="0"
         id="path11994"
         d="m -1.75,-1.75 3.5,0 0,3.5 -3.5,0 0,-3.5 z" /></clipPath><clipPath
       id="clipPath11996"
       clipPathUnits="userSpaceOnUse"><path
         inkscape:connector-curvature="0"
         id="path11998"
         d="m -1.75,-1.75 3.5,0 0,3.5 -3.5,0 0,-3.5 z" /></clipPath><clipPath
       id="clipPath12000"
       clipPathUnits="userSpaceOnUse"><path
         inkscape:connector-curvature="0"
         id="path12002"
         d="m -1.75,-1.75 3.5,0 0,3.5 -3.5,0 0,-3.5 z" /></clipPath><clipPath
       id="clipPath12004"
       clipPathUnits="userSpaceOnUse"><path
         inkscape:connector-curvature="0"
         id="path12006"
         d="m -1.75,-1.75 3.5,0 0,3.5 -3.5,0 0,-3.5 z" /></clipPath><clipPath
       id="clipPath12008"
       clipPathUnits="userSpaceOnUse"><path
         inkscape:connector-curvature="0"
         id="path12010"
         d="m -1.75,-1.75 3.5,0 0,3.5 -3.5,0 0,-3.5 z" /></clipPath><clipPath
       id="clipPath12012"
       clipPathUnits="userSpaceOnUse"><path
         inkscape:connector-curvature="0"
         id="path12014"
         d="m -1.75,-1.75 3.5,0 0,3.5 -3.5,0 0,-3.5 z" /></clipPath><clipPath
       id="clipPath12016"
       clipPathUnits="userSpaceOnUse"><path
         inkscape:connector-curvature="0"
         id="path12018"
         d="m -1.75,-1.75 3.5,0 0,3.5 -3.5,0 0,-3.5 z" /></clipPath><clipPath
       id="clipPath12020"
       clipPathUnits="userSpaceOnUse"><path
         inkscape:connector-curvature="0"
         id="path12022"
         d="m -1.75,-1.75 3.5,0 0,3.5 -3.5,0 0,-3.5 z" /></clipPath><clipPath
       id="clipPath12024"
       clipPathUnits="userSpaceOnUse"><path
         inkscape:connector-curvature="0"
         id="path12026"
         d="m -1.75,-1.75 3.5,0 0,3.5 -3.5,0 0,-3.5 z" /></clipPath><clipPath
       id="clipPath12028"
       clipPathUnits="userSpaceOnUse"><path
         inkscape:connector-curvature="0"
         id="path12030"
         d="m -1.75,-1.75 3.5,0 0,3.5 -3.5,0 0,-3.5 z" /></clipPath><clipPath
       id="clipPath12032"
       clipPathUnits="userSpaceOnUse"><path
         inkscape:connector-curvature="0"
         id="path12034"
         d="m -1.75,-1.75 3.5,0 0,3.5 -3.5,0 0,-3.5 z" /></clipPath><clipPath
       id="clipPath12036"
       clipPathUnits="userSpaceOnUse"><path
         inkscape:connector-curvature="0"
         id="path12038"
         d="m -1.75,-1.75 3.5,0 0,3.5 -3.5,0 0,-3.5 z" /></clipPath><clipPath
       id="clipPath12040"
       clipPathUnits="userSpaceOnUse"><path
         inkscape:connector-curvature="0"
         id="path12042"
         d="m -1.75,-1.75 3.5,0 0,3.5 -3.5,0 0,-3.5 z" /></clipPath><clipPath
       id="clipPath12044"
       clipPathUnits="userSpaceOnUse"><path
         inkscape:connector-curvature="0"
         id="path12046"
         d="m -1.75,-1.75 3.5,0 0,3.5 -3.5,0 0,-3.5 z" /></clipPath><clipPath
       id="clipPath12048"
       clipPathUnits="userSpaceOnUse"><path
         inkscape:connector-curvature="0"
         id="path12050"
         d="m -1.75,-1.75 3.5,0 0,3.5 -3.5,0 0,-3.5 z" /></clipPath><clipPath
       id="clipPath12052"
       clipPathUnits="userSpaceOnUse"><path
         inkscape:connector-curvature="0"
         id="path12054"
         d="m -1.75,-1.75 3.5,0 0,3.5 -3.5,0 0,-3.5 z" /></clipPath><clipPath
       id="clipPath12056"
       clipPathUnits="userSpaceOnUse"><path
         inkscape:connector-curvature="0"
         id="path12058"
         d="m -1.75,-1.75 3.5,0 0,3.5 -3.5,0 0,-3.5 z" /></clipPath><clipPath
       id="clipPath12060"
       clipPathUnits="userSpaceOnUse"><path
         inkscape:connector-curvature="0"
         id="path12062"
         d="m -1.75,-1.75 3.5,0 0,3.5 -3.5,0 0,-3.5 z" /></clipPath><clipPath
       id="clipPath12064"
       clipPathUnits="userSpaceOnUse"><path
         inkscape:connector-curvature="0"
         id="path12066"
         d="m -1.75,-1.75 3.5,0 0,3.5 -3.5,0 0,-3.5 z" /></clipPath><clipPath
       id="clipPath12068"
       clipPathUnits="userSpaceOnUse"><path
         inkscape:connector-curvature="0"
         id="path12070"
         d="m -1.75,-1.75 3.5,0 0,3.5 -3.5,0 0,-3.5 z" /></clipPath><clipPath
       id="clipPath12072"
       clipPathUnits="userSpaceOnUse"><path
         inkscape:connector-curvature="0"
         id="path12074"
         d="m -1.75,-1.75 3.5,0 0,3.5 -3.5,0 0,-3.5 z" /></clipPath><clipPath
       id="clipPath12076"
       clipPathUnits="userSpaceOnUse"><path
         inkscape:connector-curvature="0"
         id="path12078"
         d="m -1.75,-1.75 3.5,0 0,3.5 -3.5,0 0,-3.5 z" /></clipPath><clipPath
       id="clipPath12080"
       clipPathUnits="userSpaceOnUse"><path
         inkscape:connector-curvature="0"
         id="path12082"
         d="m -1.75,-1.75 3.5,0 0,3.5 -3.5,0 0,-3.5 z" /></clipPath><clipPath
       id="clipPath12084"
       clipPathUnits="userSpaceOnUse"><path
         inkscape:connector-curvature="0"
         id="path12086"
         d="m -1.75,-1.75 3.5,0 0,3.5 -3.5,0 0,-3.5 z" /></clipPath><clipPath
       id="clipPath12088"
       clipPathUnits="userSpaceOnUse"><path
         inkscape:connector-curvature="0"
         id="path12090"
         d="m -1.75,-1.75 3.5,0 0,3.5 -3.5,0 0,-3.5 z" /></clipPath><clipPath
       id="clipPath12092"
       clipPathUnits="userSpaceOnUse"><path
         inkscape:connector-curvature="0"
         id="path12094"
         d="m -1.75,-1.75 3.5,0 0,3.5 -3.5,0 0,-3.5 z" /></clipPath></defs><sodipodi:namedview
     pagecolor="#ffffff"
     bordercolor="#666666"
     borderopacity="1"
     objecttolerance="10"
     gridtolerance="10"
     guidetolerance="10"
     inkscape:pageopacity="0"
     inkscape:pageshadow="2"
     inkscape:window-width="1920"
     inkscape:window-height="1022"
     id="namedview4"
     showgrid="false"
     inkscape:zoom="2.4055011"
     inkscape:cx="184.99212"
     inkscape:cy="106.43148"
     inkscape:window-x="0"
     inkscape:window-y="34"
     inkscape:window-maximized="1"
     inkscape:current-layer="g4744"
     fit-margin-top="10"
     fit-margin-left="10"
     fit-margin-right="10"
     fit-margin-bottom="10" /><g
     id="g10"
     inkscape:groupmode="layer"
     inkscape:label="25-4-2016_ksmc_oxford_ucl"
     transform="matrix(1.25,0,0,-1.25,-54.712114,179.11899)"><g
       id="g4749"
       transform="translate(-4.098106,-98.964663)"><path
         d="m 56.96944,165.65225 237.2616,0 0,76.536 -237.2616,0 0,-76.536 z"
         style="fill:#eaeaf2;fill-opacity:1;fill-rule:nonzero;stroke:none"
         id="path384"
         inkscape:connector-curvature="0" /><path
         d="m 80.224177,165.65225 0,76.536"
         style="fill:none;stroke:#ffffff;stroke-width:0.53149998;stroke-linecap:round;stroke-linejoin:round;stroke-miterlimit:10;stroke-dasharray:none;stroke-opacity:1"
         id="path446"
         inkscape:connector-curvature="0" /><path
         d="m 127.9122,165.65225 0,76.536"
         style="fill:none;stroke:#ffffff;stroke-width:0.53149998;stroke-linecap:round;stroke-linejoin:round;stroke-miterlimit:10;stroke-dasharray:none;stroke-opacity:1"
         id="path472"
         inkscape:connector-curvature="0" /><path
         d="m 175.60023,165.65225 0,76.536"
         style="fill:none;stroke:#ffffff;stroke-width:0.53149998;stroke-linecap:round;stroke-linejoin:round;stroke-miterlimit:10;stroke-dasharray:none;stroke-opacity:1"
         id="path498"
         inkscape:connector-curvature="0" /><path
         d="m 223.28826,165.65225 0,76.536"
         style="fill:none;stroke:#ffffff;stroke-width:0.53149998;stroke-linecap:round;stroke-linejoin:round;stroke-miterlimit:10;stroke-dasharray:none;stroke-opacity:1"
         id="path514"
         inkscape:connector-curvature="0" /><path
         d="m 270.9763,165.65225 0,76.536"
         style="fill:none;stroke:#ffffff;stroke-width:0.53149998;stroke-linecap:round;stroke-linejoin:round;stroke-miterlimit:10;stroke-dasharray:none;stroke-opacity:1"
         id="path530"
         inkscape:connector-curvature="0" /><path
         d="m 56.339456,166.271 4.866126,0.43501 4.866126,0.57748 4.866125,0.75463 4.866128,0.97054 4.866122,1.22825 4.866127,1.52913 4.866127,1.8723 4.866121,2.25396 4.866132,2.66678 4.86612,3.09958 4.86613,3.53725 4.86612,3.9608 4.86613,4.34811 4.86612,4.67488 4.86613,4.91599 4.86612,5.0474 4.86613,5.04783 4.86613,4.90095 4.86612,4.59706 4.86613,4.13448 4.86612,3.52056 4.86613,2.77173 4.86613,1.91301 4.86612,0.9766 4.86613,0 4.86612,-0.9766 4.86613,-1.91301 4.86612,-2.77173 4.86613,-3.52056 4.86613,-4.13448 4.86612,-4.59706 4.86612,-4.90095 4.86613,-5.04783 4.86613,-5.0474 4.86612,-4.91599 4.86613,-4.67488 4.86612,-4.34811 4.86613,-3.9608 4.86612,-3.53725 4.86613,-3.09958 4.86613,-2.66678 4.86612,-2.25396 4.86613,-1.8723 4.86612,-1.52913 4.86613,-1.22825 4.86613,-0.97054 4.86612,-0.75463 4.86612,-0.57748 4.86613,-0.43501"
         style="fill:none;stroke:#4c72b0;stroke-width:0.930125;stroke-linecap:round;stroke-linejoin:round;stroke-miterlimit:10;stroke-dasharray:none;stroke-opacity:1"
         id="path390"
         inkscape:connector-curvature="0" /><path
         transform="matrix(0.8,0,0,-0.8,39.213125,250.18825)"
         inkscape:connector-curvature="0"
         id="path4723"
         d="m 313.52626,103.60894 c -6.62336,-0.71502 -14.49149,-2.00751 -19.53855,-3.20958 l -3.94928,-0.940619 0,-44.677743 0,-44.677747 14.44606,-0.1093157 14.44605,-0.1093153 0,47.188902 c 0,25.953898 -0.0468,47.168088 -0.10393,47.142648 -0.0572,-0.0255 -2.44232,-0.2987 -5.30035,-0.60723 z"
         style="fill:#ffffff;fill-opacity:1;stroke:none;stroke-width:74.18499756;stroke-miterlimit:4;stroke-dasharray:none;stroke-opacity:0.44401544" /><path
         transform="matrix(0.8,0,0,-0.8,39.213125,250.18825)"
         inkscape:connector-curvature="0"
         id="path4725"
         d="M 284.4263,97.647779 C 267.53131,91.944485 253.32358,82.538661 236.09957,65.65442 l -5.71607,-5.603302 0,-25.077863 0,-25.0778614 29.51568,0 29.51568,0 0,44.6892334 c 0,24.579078 -0.0468,44.686477 -0.10393,44.68311 -0.0572,-0.0033 -2.25524,-0.732346 -4.88463,-1.619958 z"
         style="fill:#ffffff;fill-opacity:1;stroke:none;stroke-width:74.18499756;stroke-miterlimit:4;stroke-dasharray:none;stroke-opacity:0.44401544" /><path
         transform="matrix(0.8,0,0,-0.8,39.213125,250.18825)"
         inkscape:connector-curvature="0"
         id="path4727"
         d="M 218.68026,47.976916 C 203.77828,32.754244 196.40631,26.42329 188.67801,22.211399 183.04039,19.138916 176.27606,16.962528 172.36425,16.962528 l -1.42782,0 0,-3.533567 0,-3.5335674 29.32087,0 c 23.07355,0 29.36322,0.1107184 29.51963,0.5196424 0.10932,0.285803 0.15022,11.400722 0.0909,24.699819 l -0.1079,24.180175 -11.07967,-11.318114 z"
         style="fill:#ffffff;fill-opacity:1;stroke:none;stroke-width:74.18499756;stroke-miterlimit:4;stroke-dasharray:none;stroke-opacity:0.44401544" /><path
         transform="matrix(0.8,0,0,-0.8,39.213125,250.18825)"
         inkscape:connector-curvature="0"
         id="path4729"
         d="m 111.07364,34.628836 0,-24.7334424 29.51568,0 29.51568,0 0,3.5335674 0,3.533567 -1.42782,0 c -2.23826,0 -7.21048,1.158246 -10.64861,2.480524 -10.25223,3.942929 -20.29959,12.20043 -40.85999,33.581118 l -6.09494,6.338106 0,-24.73344 z"
         style="fill:#ffffff;fill-opacity:1;stroke:none;stroke-width:74.18499756;stroke-miterlimit:4;stroke-dasharray:none;stroke-opacity:0.44401544" /><path
         transform="matrix(0.8,0,0,-0.8,39.213125,250.18825)"
         inkscape:connector-curvature="0"
         id="path4731"
         d="m 51.626569,54.54422 0,-44.6488264 29.515679,0 29.515682,0 0,25.1319404 0,25.13194 -7.58678,7.146166 C 94.156102,75.702734 87.011038,81.539568 80.102964,86.06825 72.084085,91.32513 62.364525,95.971584 54.369655,98.370099 l -2.743086,0.822947 0,-44.648826 z"
         style="fill:#ffffff;fill-opacity:1;stroke:none;stroke-width:74.18499756;stroke-miterlimit:4;stroke-dasharray:none;stroke-opacity:0.44401544" /><path
         transform="matrix(0.8,0,0,-0.8,39.213125,250.18825)"
         inkscape:connector-curvature="0"
         id="path4733"
         d="m 22.110889,56.995081 0,-47.0996874 14.342126,0 14.342126,0 0,44.6995224 0,44.699522 -1.083648,0.412002 c -2.830282,1.07607 -16.312935,3.35839 -23.963108,4.05643 l -3.637496,0.3319 0,-47.099689 z"
         style="fill:#ffffff;fill-opacity:1;stroke:none;stroke-width:74.18499756;stroke-miterlimit:4;stroke-dasharray:none;stroke-opacity:0.44401544" /><path
         style="fill:#ffffff;fill-opacity:1;stroke:#000000;stroke-width:0.28465024;stroke-miterlimit:4;stroke-dasharray:0.28465024, 0.28465024;stroke-dashoffset:0;stroke-opacity:0.58823529"
         d="m 22.210885,239.59289 c 0.06523,-0.0611 1.719762,-0.25924 3.676733,-0.44032 8.349925,-0.77263 19.40201,-2.65365 24.551083,-4.1785 0.447134,-0.13242 0.498138,0.10218 0.498138,2.29119 l 0,2.43871 -14.422279,0 c -7.932253,0 -14.368907,-0.05 -14.303675,-0.11108 z"
         id="path4768"
         inkscape:connector-curvature="0"
         transform="matrix(0.8,0,0,-0.8,39.213125,357.35084)" /><path
         style="fill:#ffffff;fill-opacity:1;stroke:#000000;stroke-width:0.28465024;stroke-miterlimit:4;stroke-dasharray:0.28465024, 0.28465024;stroke-dashoffset:0;stroke-opacity:0.58823529"
         d="m 290.04304,237.26526 c 0,-2.19144 0.0505,-2.42311 0.49814,-2.28482 4.89652,1.51273 13.96229,3.03783 26.11666,4.39351 1.60253,0.17874 -2.00271,0.26525 -12.1688,0.292 l -14.446,0.038 0,-2.43871 z"
         id="path4770"
         inkscape:connector-curvature="0"
         transform="matrix(0.8,0,0,-0.8,39.213125,357.35084)" /></g><g
       id="g4744"
       transform="translate(-3.6234635,-113.14949)"
       style="fill:#ffffff"><path
         style="fill:none;fill-rule:evenodd;stroke:#000000;stroke-width:0.8;stroke-linecap:butt;stroke-linejoin:miter;stroke-opacity:0.58823532;stroke-miterlimit:4;stroke-dasharray:0.8, 0.80000000000000004;stroke-dashoffset:0"
         d="m 78.987404,170.3536 190.895776,0 0,0.66514"
         id="path4784"
         inkscape:connector-curvature="0" /><path
         style="fill:#ffffff;fill-rule:evenodd;stroke:#000000;stroke-width:0.80000001;stroke-linecap:butt;stroke-linejoin:miter;stroke-miterlimit:4;stroke-dasharray:0.8, 0.8;stroke-dashoffset:0;stroke-opacity:0.58823529"
         d="m 79.637001,174.95256 0,-10.64228"
         id="path4735"
         inkscape:connector-curvature="0" /><path
         inkscape:connector-curvature="0"
         id="path4737"
         d="m 270.53278,174.95256 0,-10.64228"
         style="fill:#ffffff;fill-rule:evenodd;stroke:#000000;stroke-width:0.80000001;stroke-linecap:butt;stroke-linejoin:miter;stroke-miterlimit:4;stroke-dasharray:0.8, 0.8;stroke-dashoffset:0;stroke-opacity:0.58823529" /><rect
         style="fill:#ffffff;fill-opacity:1;stroke:none;stroke-width:0.80000001;stroke-miterlimit:4;stroke-dasharray:0.8, 0.8;stroke-dashoffset:0;stroke-opacity:0.58823529"
         id="rect4786"
         width="22.947401"
         height="11.639986"
         x="163.16159"
         y="-176.30617"
         transform="scale(1,-1)" /><g
         transform="matrix(1,0,0,-1,-3.381103,0.333215)"
         style="font-style:normal;font-weight:normal;font-size:32px;line-height:125%;font-family:sans-serif;letter-spacing:-0.81599998px;word-spacing:0px;fill:#000000;fill-opacity:1;stroke:none;stroke-width:1px;stroke-linecap:butt;stroke-linejoin:miter;stroke-opacity:1"
         id="text4772"><path
           id="path4781"
           style="font-size:8px;fill:#000000;fill-opacity:1"
           d="m 184.27852,-169.80725 q -0.33984,0 -0.53515,0.28906 -0.19141,0.28906 -0.19141,0.80469 0,0.50781 0.19141,0.80078 0.19531,0.28906 0.53515,0.28906 0.33203,0 0.52344,-0.28906 0.19531,-0.29297 0.19531,-0.80078 0,-0.51172 -0.19531,-0.80078 -0.19141,-0.29297 -0.52344,-0.29297 z m 0,-0.49609 q 0.61719,0 0.98047,0.42968 0.36328,0.42969 0.36328,1.16016 0,0.73047 -0.36719,1.16016 -0.36328,0.42578 -0.97656,0.42578 -0.625,0 -0.98828,-0.42578 -0.36328,-0.42969 -0.36328,-1.16016 0,-0.73438 0.36328,-1.16016 0.36719,-0.42968 0.98828,-0.42968 z m -4.03125,-2.37891 q -0.33594,0 -0.53125,0.29297 -0.1914,0.28906 -0.1914,0.79687 0,0.51563 0.1914,0.80469 0.19141,0.28906 0.53125,0.28906 0.33985,0 0.53125,-0.28906 0.19531,-0.28906 0.19531,-0.80469 0,-0.5039 -0.19531,-0.79687 -0.19531,-0.29297 -0.53125,-0.29297 z m 3.52735,-0.49609 0.625,0 -3.64844,6.05078 -0.625,0 3.64844,-6.05078 z m -3.52735,0 q 0.61719,0 0.98438,0.42968 0.36718,0.42578 0.36718,1.15625 0,0.73828 -0.36718,1.16407 -0.36328,0.42578 -0.98438,0.42578 -0.62109,0 -0.98437,-0.42578 -0.35938,-0.42969 -0.35938,-1.16407 0,-0.72656 0.36328,-1.15625 0.36328,-0.42968 0.98047,-0.42968 z m -5.184,5.8164 0,-0.71875 q 0.29688,0.14063 0.60156,0.21485 0.30469,0.0742 0.59766,0.0742 0.78125,0 1.19141,-0.52343 0.41406,-0.52735 0.47265,-1.59766 -0.22656,0.33594 -0.57422,0.51563 -0.34765,0.17968 -0.76953,0.17968 -0.875,0 -1.38672,-0.52734 -0.50781,-0.53125 -0.50781,-1.44922 0,-0.89844 0.53125,-1.44141 0.53125,-0.54296 1.41406,-0.54296 1.01172,0 1.54297,0.77734 0.53516,0.77344 0.53516,2.25 0,1.37891 -0.65625,2.20312 -0.65234,0.82032 -1.75781,0.82032 -0.29688,0 -0.60157,-0.0586 -0.30468,-0.0586 -0.63281,-0.17578 z m 1.57031,-2.47265 q 0.53125,0 0.83985,-0.36329 0.3125,-0.36328 0.3125,-0.99609 0,-0.62891 -0.3125,-0.99219 -0.3086,-0.36718 -0.83985,-0.36718 -0.53125,0 -0.84375,0.36718 -0.30859,0.36328 -0.30859,0.99219 0,0.63281 0.30859,0.99609 0.3125,0.36329 0.84375,0.36329 z m -5.84806,2.47265 0,-0.71875 q 0.29688,0.14063 0.60156,0.21485 0.30469,0.0742 0.59766,0.0742 0.78125,0 1.19141,-0.52343 0.41406,-0.52735 0.47265,-1.59766 -0.22656,0.33594 -0.57422,0.51563 -0.34765,0.17968 -0.76953,0.17968 -0.875,0 -1.38672,-0.52734 -0.50781,-0.53125 -0.50781,-1.44922 0,-0.89844 0.53125,-1.44141 0.53125,-0.54296 1.41406,-0.54296 1.01172,0 1.54297,0.77734 0.53516,0.77344 0.53516,2.25 0,1.37891 -0.65625,2.20312 -0.65234,0.82032 -1.75781,0.82032 -0.29688,0 -0.60157,-0.0586 -0.30468,-0.0586 -0.63281,-0.17578 z m 1.57031,-2.47265 q 0.53125,0 0.83985,-0.36329 0.3125,-0.36328 0.3125,-0.99609 0,-0.62891 -0.3125,-0.99219 -0.3086,-0.36718 -0.83985,-0.36718 -0.53125,0 -0.84375,0.36718 -0.30859,0.36328 -0.30859,0.99219 0,0.63281 0.30859,0.99609 0.3125,0.36329 0.84375,0.36329 z"
           inkscape:connector-curvature="0" /></g></g></g></svg>